<svg height="800px" width="800px" version="1.1"
    xmlns="http://www.w3.org/2000/svg"
    xmlns:xlink="http://www.w3.org/1999/xlink" viewBox="0 0 253.032 253.032" xml:space="preserve" style="background-color: #242424">
    <!--https://www.svgrepo.com/svg/146136/remote-control-->
    <g id="border">
        <path style="fill:#000002;" d="M180.29,0H72.742c-12.406,0-22.5,10.094-22.5,22.5v208.032c0,12.406,10.094,22.5,22.5,22.5H180.29
		c12.406,0,22.5-10.094,22.5-22.5V22.5C202.79,10.094,192.697,0,180.29,0z M187.79,230.532c0,4.136-3.364,7.5-7.5,7.5H72.742
		c-4.136,0-7.5-3.364-7.5-7.5V22.5c0-4.136,3.364-7.5,7.5-7.5H180.29c4.136,0,7.5,3.364,7.5,7.5V230.532z"/>
        <rect x="65" y="15" width="123" height="223" rx="7" style="fill: #545050"/>
    </g>
    <g id="KEY_FAN" transform="translate(80, 40) scale(2 2)">
        <!--Fan https://www.svgviewer.dev/s/12965/fan-option-->
        <rect x="3" y="3" width="18" height="18" style="fill: rgba(0,0,0,0)" />
        <path d="M14.9999 9.50009C15.4999 9.16675 15.8999 7.80009 15.4999 7.00009C15.0999 6.20009 13.3334 5.66674 13.0001 5.50007M14 10.5001C15.5001 8.5001 14.0001 7.00006 11.5 5.5001C9.95405 4.57263 13.4999 4.00009 16.0001 6.00009C17.8751 7.49994 17 8.50009 14 11.5001V10.5001Z" stroke="black" stroke-width="2"/>
        <path d="M8.98522 14.402C8.48522 14.7353 8.08522 16.102 8.48522 16.902C8.88522 17.702 10.6517 18.2354 10.9851 18.402M9.98516 13.402C8.48509 15.402 9.98504 16.902 12.4852 18.402C14.0311 19.3295 10.4852 19.902 7.98502 17.902C6.11005 16.4022 6.98516 15.402 9.98516 12.402V13.402Z" stroke="black" stroke-width="2"/>
        <path d="M9.54159 8.94372C9.20826 8.44372 7.84159 8.04372 7.04159 8.44372C6.24159 8.84372 5.70824 10.6102 5.54157 10.9435M10.5416 9.94366C8.54161 8.44359 7.04156 9.94354 5.54161 12.4437C4.61413 13.9896 4.04159 10.4437 6.04159 7.94352C7.54145 6.06854 8.5416 6.94366 11.5416 9.94366H10.5416Z" stroke="black" stroke-width="2"/>
        <path d="M14.4436 14.9584C14.7769 15.4584 16.1436 15.8584 16.9436 15.4584C17.7436 15.0584 18.2769 13.2919 18.4436 12.9586M13.4436 13.9584C15.4436 15.4585 16.9436 13.9586 18.4436 11.4584C19.371 9.91249 19.9436 13.4584 17.9436 15.9586C16.4437 17.8336 15.4436 16.9584 12.4436 13.9584H13.4436Z" stroke="black" stroke-width="2"/>
    </g>
    <g id="KEY_POWER">
        <rect x="135" y="35" width="35" height="50" style="fill: rgba(0,0,0,0)" />
        <!--Power Sign-->
        <path d="m 150, 80 c -6.84,-1.372 -11.6,-6.272 -13.09,-13.466 -0.87,-4.222 0.76,-10.088 3.82,-13.769 2.2,-2.647 7.83,-5.526 8.96,-4.586 1.07,0.889 0.41,1.791 -2.23,3.06 -4.57,2.189 -7.2,5.758 -7.92,10.732 -0.85,5.919 2.23,11.676 7.63,14.254 8.52,4.065 18.14,-1.588 19.13,-11.241 0.58,-5.691 -2.79,-11.362 -8.2,-13.817 -2.29,-1.039 -2.86,-1.708 -2.26,-2.634 0.51,-0.782 1.79,-0.584 4.33,0.669 2.57,1.263 5.79,4.473 7.12,7.097 4.15,8.188 0.72,18.449 -7.46,22.334 -3.33,1.578 -6.55,2.026 -9.83,1.367 z m 2.06,-19.162 c -0.46,-0.459 -0.54,-1.873 -0.54,-10.311 0,-8.437 0.08,-9.851 0.54,-10.311 0.66,-0.668 0.97,-0.668 1.64,0 0.46,0.46 0.53,1.874 0.53,10.311 0,8.438 -0.07,9.852 -0.53,10.311 -0.29,0.293 -0.66,0.533 -0.82,0.533 -0.16,0 -0.53,-0.24 -0.82,-0.533 z" />
    </g>
    <text id="KEY_ROTATE" x="80" y="130" style="font-size: 25px;user-select: none">&#10611;&#10612; </text>
    <text id="KEY_TIMER" x="135" y="130" style="font-size: 25px;user-select: none">&#x1F552; </text>
    <text id="KEY_MUTE" x="85" y="180" style="font-size: 25px;user-select: none">&#x1F507; </text>
    <text id="KEY_WHIRL" x="135" y="180" style="font-size: 25px;user-select: none">&#x1F300; </text>
</svg>